<svg width="126" height="21" viewBox="0 0 126 21" version="1.1" xmlns="http://www.w3.org/2000/svg" xmlns:xlink="http://www.w3.org/1999/xlink">
<title>Group-2</title>
<desc>Created using Figma</desc>
<g id="Canvas" transform="translate(-28569 55726)">
<g id="Group-2">
<g id="Vector">
<use xlink:href="#path0_fill" transform="translate(28569 -55726)"/>
</g>
<g id="Vector">
<use xlink:href="#path1_fill" transform="translate(28588.3 -55719.5)"/>
</g>
<g id="Vector">
<use xlink:href="#path2_fill" transform="translate(28596.2 -55719.6)"/>
</g>
<g id="Vector">
<use xlink:href="#path3_fill" transform="translate(28611.5 -55726)"/>
</g>
<g id="Vector">
<use xlink:href="#path4_fill" transform="translate(28625.4 -55726)"/>
</g>
<g id="Vector">
<use xlink:href="#path5_fill" transform="translate(28625.9 -55719.2)"/>
</g>
<g id="Vector">
<use xlink:href="#path6_fill" transform="translate(28630.5 -55723.2)"/>
</g>
<g id="Vector">
<use xlink:href="#path7_fill" transform="translate(28639.6 -55719.6)"/>
</g>
<g id="Vector">
<use xlink:href="#path8_fill" transform="translate(28654.1 -55719.6)"/>
</g>
<g id="Vector">
<use xlink:href="#path9_fill" transform="translate(28668.2 -55723.2)"/>
</g>
<g id="Vector">
<use xlink:href="#path10_fill" transform="translate(28676.9 -55719.6)"/>
</g>
<g id="Vector">
<use xlink:href="#path11_fill" transform="translate(28692 -55707.6)"/>
</g>
<g id="Vector">
<use xlink:href="#path12_fill" transform="translate(28689.9 -55707.6)"/>
</g>
</g>
</g>
<defs>
<path id="path0_fill" d="M 7.53941 5.00679e-07L 0 20.2125L 2.5348 20.2125L 4.54964 14.5031L 12.869 14.5031L 14.8838 20.2125L 17.4186 20.2125L 9.81423 5.00679e-07L 7.53941 5.00679e-07ZM 5.26459 12.4687L 8.64432 2.82187L 8.70931 2.82187L 12.089 12.4687L 5.26459 12.4687Z"/>
<path id="path1_fill" d="M 2.07984 3.21563L 2.01484 0.2625L 4.95872e-07 0.2625L 4.95872e-07 13.7156L 2.07984 13.7156L 2.07984 7.28437C 2.07984 4.13437 3.24975 2.23125 5.97953 2.23125L 6.62948 2.23125L 6.62948 -1.00136e-06L 5.91453 -1.00136e-06C 3.70471 0.065624 2.5998 1.77188 2.07984 3.21563Z"/>
<path id="path2_fill" d="M 6.75947 12.3375C 3.57472 12.3375 2.20983 9.84375 2.20983 7.21875C 2.20983 3.9375 4.22467 1.90313 6.88946 1.90313C 9.42426 1.90313 10.1392 3.87188 10.5292 4.85625L 12.674 4.65937C 12.154 1.44375 9.74924 1.00136e-06 6.82447 1.00136e-06C 3.24975 1.00136e-06 9.91743e-07 2.69063 9.91743e-07 7.15313C 9.91743e-07 10.8938 2.33982 14.175 6.75947 14.175C 10.3992 14.175 12.0241 11.7469 12.739 9.45L 10.5292 9.1875C 10.0742 10.7625 9.09929 12.3375 6.75947 12.3375Z"/>
<path id="path3_fill" d="M 6.3695 6.5625C 4.48465 6.5625 3.05476 7.35 2.14483 9.05625L 2.07984 9.05625L 2.07984 5.00679e-07L 9.91743e-07 5.00679e-07L 9.91743e-07 20.2125L 2.07984 20.2125L 2.07984 12.7312C 2.07984 9.90937 3.8347 8.4 5.78455 8.4C 7.27943 8.4 8.70932 9.25312 8.70932 12.075L 8.70932 20.2125L 10.7892 20.2125L 10.7892 11.1562C 10.7892 7.35 7.92937 6.5625 6.3695 6.5625Z"/>
<path id="path4_fill" d="M 1.55988 5.00679e-07C 0.649947 5.00679e-07 1.98349e-06 0.721874 1.98349e-06 1.575C 1.98349e-06 2.49375 0.714942 3.15 1.55988 3.15C 2.4698 3.15 3.11975 2.42812 3.11975 1.575C 3.11975 0.656249 2.4698 5.00679e-07 1.55988 5.00679e-07Z"/>
<path id="path5_fill" d="M 2.07984 0L 0 0L 0 13.4531L 2.07984 13.4531L 2.07984 0Z"/>
<path id="path6_fill" d="M 4.54964 0L 2.46981 0L 2.46981 3.9375L -9.91743e-07 3.9375L -9.91743e-07 5.64375L 2.46981 5.64375L 2.46981 14.175C 2.46981 16.8656 3.31474 17.5875 5.1346 17.5875C 5.78454 17.5875 6.49949 17.5875 7.21443 17.5219L 7.21443 15.6188C 6.82446 15.6844 6.3045 15.6844 5.84954 15.6844C 4.93961 15.6844 4.54964 15.1594 4.54964 13.9125L 4.54964 5.64375L 7.21443 5.64375L 7.21443 3.9375L 4.54964 3.9375L 4.54964 0Z"/>
<path id="path7_fill" d="M 6.3695 1.00136e-06C 2.46981 1.00136e-06 -9.91743e-07 3.08437 -9.91743e-07 7.6125C -9.91743e-07 11.3531 2.5348 14.175 6.23951 14.175C 9.29427 14.175 11.2441 12.5344 12.349 9.975L 10.2042 9.64687C 9.74923 10.7625 8.70932 12.2719 6.30451 12.2719C 4.09468 12.2719 2.14483 10.6313 2.14483 7.54688L 12.674 7.54688L 12.674 6.95625C 12.739 2.42812 10.1392 1.00136e-06 6.3695 1.00136e-06ZM 2.27482 5.90625C 2.40481 4.06875 3.70471 1.90313 6.43449 1.90313C 8.8393 1.90313 10.2042 3.4125 10.5292 5.90625L 2.27482 5.90625Z"/>
<path id="path8_fill" d="M 6.75946 12.3375C 3.57472 12.3375 2.20982 9.84375 2.20982 7.21875C 2.20982 3.9375 4.22467 1.90313 6.88946 1.90313C 9.42426 1.90313 10.1392 3.87188 10.5292 4.85625L 12.674 4.65937C 12.154 1.44375 9.74923 1.00136e-06 6.82446 1.00136e-06C 3.24974 1.00136e-06 0 2.69063 0 7.15313C 0 10.8938 2.33981 14.175 6.75946 14.175C 10.3992 14.175 12.0241 11.7469 12.739 9.45L 10.5292 9.1875C 10.0742 10.7625 9.03429 12.3375 6.75946 12.3375Z"/>
<path id="path9_fill" d="M 4.54965 0L 2.4698 0L 2.4698 3.9375L 3.96697e-06 3.9375L 3.96697e-06 5.64375L 2.4698 5.64375L 2.4698 14.175C 2.4698 16.8656 3.31474 17.5875 5.1346 17.5875C 5.78454 17.5875 6.49949 17.5875 7.21443 17.5219L 7.21443 15.6188C 6.82446 15.6844 6.30451 15.6844 5.84954 15.6844C 4.93962 15.6844 4.54965 15.1594 4.54965 13.9125L 4.54965 5.64375L 7.21443 5.64375L 7.21443 3.9375L 4.54965 3.9375L 4.54965 0Z"/>
<path id="path10_fill" d="M 6.04453 6.3C 3.57472 5.90625 2.5348 5.31562 2.5348 4.00312C 2.5348 2.69062 3.8347 1.90313 5.71955 1.90313C 8.05937 1.90313 8.9043 3.15 8.96929 4.39687L 11.0491 4.39687C 11.0491 1.77187 8.8393 1.00136e-06 5.84954 1.00136e-06C 2.5998 1.00136e-06 0.389973 1.575 0.389973 4.2C 0.389973 6.75938 2.5348 7.67813 5.19959 8.1375C 8.51433 8.72813 9.22927 9.1875 9.22927 10.2375C 9.22927 11.6156 7.6694 12.3375 5.58956 12.3375C 2.92477 12.3375 2.14483 11.025 2.07983 9.90937L 0 9.90937C 0.25998 12.1406 1.42989 14.2406 5.65455 14.2406C 9.81422 14.2406 11.3091 12.1406 11.3091 10.1719C 11.4391 7.67813 9.48925 6.825 6.04453 6.3Z"/>
<path id="path11_fill" d="M 1.16991 1.77188L 0.519963 -2.00272e-06L 1.98349e-06 -2.00272e-06L 1.98349e-06 2.23125L 0.259978 2.23125L 0.259978 0.262499L 0.324976 0.262499L 1.10491 2.23125L 1.2999 2.23125L 2.01484 0.262499L 2.07984 0.262499L 2.07984 2.23125L 2.33981 2.23125L 2.33981 -2.00272e-06L 1.81986 -2.00272e-06L 1.16991 1.77188Z"/>
<path id="path12_fill" d="M 0 0.262499L 0.714948 0.262499L 0.714948 2.23125L 1.03992 2.23125L 1.03992 0.262499L 1.75486 0.262499L 1.75486 -2.00272e-06L 0 -2.00272e-06L 0 0.262499Z"/>
</defs>
</svg>
