<svg width="228" height="83" viewBox="0 0 228 83" version="1.1" xmlns="http://www.w3.org/2000/svg" xmlns:xlink="http://www.w3.org/1999/xlink">
<title>Group</title>
<desc>Created using Figma</desc>
<g id="Canvas" transform="translate(-16328 55663)">
<g id="Group">
<g id="Vector">
<use xlink:href="#path0_fill" transform="translate(16331.9 -55662.3)"/>
</g>
<g id="Vector">
<use xlink:href="#path1_fill" transform="translate(16374.1 -55663)"/>
</g>
<g id="Vector">
<use xlink:href="#path2_fill" transform="translate(16412 -55662.3)"/>
</g>
<g id="Vector">
<use xlink:href="#path3_fill" transform="translate(16446.8 -55662.3)"/>
</g>
<g id="Vector">
<use xlink:href="#path4_fill" transform="translate(16328 -55617.4)"/>
</g>
<g id="Vector">
<use xlink:href="#path5_fill" transform="translate(16363.1 -55605.7)"/>
</g>
<g id="Vector">
<use xlink:href="#path6_fill" transform="translate(16377.5 -55606)"/>
</g>
<g id="Vector">
<use xlink:href="#path7_fill" transform="translate(16405.2 -55617.4)"/>
</g>
<g id="Vector">
<use xlink:href="#path8_fill" transform="translate(16430.5 -55617.4)"/>
</g>
<g id="Vector">
<use xlink:href="#path9_fill" transform="translate(16431.5 -55605.3)"/>
</g>
<g id="Vector">
<use xlink:href="#path10_fill" transform="translate(16439.7 -55612.3)"/>
</g>
<g id="Vector">
<use xlink:href="#path11_fill" transform="translate(16456.3 -55606)"/>
</g>
<g id="Vector">
<use xlink:href="#path12_fill" transform="translate(16482.7 -55606)"/>
</g>
<g id="Vector">
<use xlink:href="#path13_fill" transform="translate(16508.2 -55612.3)"/>
</g>
<g id="Vector">
<use xlink:href="#path14_fill" transform="translate(16524.1 -55606)"/>
</g>
<g id="Vector">
<use xlink:href="#path15_fill" transform="translate(16551.6 -55584.4)"/>
</g>
<g id="Vector">
<use xlink:href="#path16_fill" transform="translate(16547.7 -55584.4)"/>
</g>
</g>
</g>
<defs>
<path id="path0_fill" d="M 4.13387 7.67471L 17.2441 36.3663L 19.8426 36.3663L 32.9528 7.32049L 33.0709 7.32049L 33.0709 36.3663L 37.0867 36.3663L 37.0867 9.00821e-07L 32.3623 9.00821e-07L 18.5433 30.6988L 4.84253 9.00821e-07L -5.63195e-08 9.00821e-07L -5.63195e-08 36.3663L 4.13387 36.3663L 4.13387 7.67471Z"/>
<path id="path1_fill" d="M 18.5433 37.7832C 29.0552 37.7832 37.0867 29.8723 37.0867 18.8916C 37.0867 7.20242 29.2914 4.50411e-07 18.5433 4.50411e-07C 8.03151 4.50411e-07 0 7.91085 0 18.8916C 0.11811 30.5808 7.9134 37.7832 18.5433 37.7832ZM 18.5433 3.77832C 28.7008 3.77832 32.7166 11.5711 32.7166 19.0097C 32.7166 25.0314 28.819 34.241 18.5433 34.241C 8.38584 34.241 4.37009 25.0314 4.37009 19.0097C 4.4882 11.5711 8.50395 3.77832 18.5433 3.77832Z"/>
<path id="path2_fill" d="M 17.8347 9.00821e-07L 13.7008 9.00821e-07L -1.80222e-06 36.3663L 4.60631 36.3663L 8.26773 26.094L 23.3859 26.094L 27.0473 36.3663L 31.6536 36.3663L 17.8347 9.00821e-07ZM 9.56694 22.4338L 15.7087 5.07711L 15.8268 5.07711L 21.9685 22.4338L 9.56694 22.4338Z"/>
<path id="path3_fill" d="M 26.9292 36.3663L 31.5355 36.3663L 17.8347 9.00821e-07L 13.7008 9.00821e-07L -1.80222e-06 36.3663L 4.60631 36.3663L 8.26773 26.094L 23.3859 26.094L 26.9292 36.3663ZM 9.56694 22.4338L 15.7087 5.07711L 15.8268 5.07711L 21.9685 22.4338L 9.56694 22.4338Z"/>
<path id="path4_fill" d="M 13.7008 9.00821e-07L 0 36.3663L 4.60631 36.3663L 8.26773 26.094L 23.3859 26.094L 27.0473 36.3663L 31.6536 36.3663L 17.8347 9.00821e-07L 13.7008 9.00821e-07ZM 9.56695 22.4338L 15.7087 5.07711L 15.8268 5.07711L 21.9685 22.4338L 9.56695 22.4338Z"/>
<path id="path5_fill" d="M 3.77954 5.78555L 3.66142 0.47229L 9.01111e-07 0.47229L 9.01111e-07 24.6771L 3.77954 24.6771L 3.77954 13.106C 3.77954 7.43856 5.90552 4.01446 10.8662 4.01446L 12.0473 4.01446L 12.0473 -1.80164e-06L 10.748 -1.80164e-06C 6.73229 0.118071 4.72442 3.18796 3.77954 5.78555Z"/>
<path id="path6_fill" d="M 12.2835 22.1976C 6.49607 22.1976 4.01575 17.7109 4.01575 12.988C 4.01575 7.08435 7.67718 3.4241 12.5197 3.4241C 17.126 3.4241 18.4252 6.96628 19.1339 8.73736L 23.0315 8.38314C 22.0867 2.59759 17.7166 1.80164e-06 12.4016 1.80164e-06C 5.90553 1.80164e-06 1.80222e-06 4.84097 1.80222e-06 12.8699C 1.80222e-06 19.6 4.25198 25.5036 12.2835 25.5036C 18.8977 25.5036 21.8504 21.135 23.1497 17.0024L 19.1339 16.5301C 18.3071 19.3639 16.5355 22.1976 12.2835 22.1976Z"/>
<path id="path7_fill" d="M 11.5748 11.8072C 8.14962 11.8072 5.55119 13.2241 3.89764 16.294L 3.77953 16.294L 3.77953 9.00821e-07L 1.80222e-06 9.00821e-07L 1.80222e-06 36.3663L 3.77953 36.3663L 3.77953 22.906C 3.77953 17.8289 6.96852 15.1133 10.5118 15.1133C 13.2284 15.1133 15.8268 16.6482 15.8268 21.7253L 15.8268 36.3663L 19.6063 36.3663L 19.6063 20.0723C 19.6063 13.2241 14.4095 11.8072 11.5748 11.8072Z"/>
<path id="path8_fill" d="M 2.83465 9.00821e-07C 1.1811 9.00821e-07 3.60445e-06 1.29879 3.60445e-06 2.83374C 3.60445e-06 4.48675 1.29921 5.66748 2.83465 5.66748C 4.48819 5.66748 5.6693 4.36868 5.6693 2.83374C 5.6693 1.18072 4.48819 9.00821e-07 2.83465 9.00821e-07Z"/>
<path id="path9_fill" d="M 3.77954 0L 0 0L 0 24.2048L 3.77954 24.2048L 3.77954 0Z"/>
<path id="path10_fill" d="M 8.26773 0L 4.4882 0L 4.4882 7.08434L -1.80222e-06 7.08434L -1.80222e-06 10.1542L 4.4882 10.1542L 4.4882 25.5036C 4.4882 30.3446 6.02363 31.6434 9.33073 31.6434C 10.5118 31.6434 11.811 31.6434 13.1103 31.5253L 13.1103 28.1012C 12.4016 28.2193 11.4567 28.2193 10.6299 28.2193C 8.97639 28.2193 8.26773 27.2747 8.26773 25.0313L 8.26773 10.1542L 13.1103 10.1542L 13.1103 7.08434L 8.26773 7.08434L 8.26773 0Z"/>
<path id="path11_fill" d="M 11.5748 1.80164e-06C 4.4882 1.80164e-06 -1.80222e-06 5.5494 -1.80222e-06 13.6964C -1.80222e-06 20.4265 4.6063 25.5036 11.3386 25.5036C 16.8898 25.5036 20.4331 22.5518 22.441 17.947L 18.5433 17.3566C 17.7166 19.3639 15.8268 22.0795 11.4567 22.0795C 7.44096 22.0795 3.89765 19.1277 3.89765 13.5783L 23.0315 13.5783L 23.0315 12.5157C 23.1497 4.36868 18.4252 1.80164e-06 11.5748 1.80164e-06ZM 4.13386 10.6265C 4.37008 7.32049 6.7323 3.4241 11.6929 3.4241C 16.063 3.4241 18.5433 6.13977 19.1339 10.6265L 4.13386 10.6265Z"/>
<path id="path12_fill" d="M 12.2835 22.1976C 6.49607 22.1976 4.01575 17.7109 4.01575 12.988C 4.01575 7.08435 7.67719 3.4241 12.5197 3.4241C 17.126 3.4241 18.4252 6.96628 19.1339 8.73736L 23.0315 8.38314C 22.0867 2.59759 17.7166 1.80164e-06 12.4016 1.80164e-06C 5.90552 1.80164e-06 0 4.84097 0 12.8699C 0 19.6 4.25197 25.5036 12.2835 25.5036C 18.8977 25.5036 21.8504 21.135 23.1497 17.0024L 19.1339 16.5301C 18.3071 19.3639 16.4173 22.1976 12.2835 22.1976Z"/>
<path id="path13_fill" d="M 8.26774 0L 4.48819 0L 4.48819 7.08434L 7.20889e-06 7.08434L 7.20889e-06 10.1542L 4.48819 10.1542L 4.48819 25.5036C 4.48819 30.3446 6.02363 31.6434 9.33073 31.6434C 10.5118 31.6434 11.811 31.6434 13.1103 31.5253L 13.1103 28.1012C 12.4016 28.2193 11.4567 28.2193 10.6299 28.2193C 8.9764 28.2193 8.26774 27.2747 8.26774 25.0313L 8.26774 10.1542L 13.1103 10.1542L 13.1103 7.08434L 8.26774 7.08434L 8.26774 0Z"/>
<path id="path14_fill" d="M 10.9843 11.335C 6.49608 10.6265 4.6063 9.56386 4.6063 7.20242C 4.6063 4.84097 6.96852 3.4241 10.3937 3.4241C 14.6457 3.4241 16.1811 5.66747 16.2992 7.91085L 20.0788 7.91085C 20.0788 3.18795 16.063 1.80164e-06 10.6299 1.80164e-06C 4.72442 1.80164e-06 0.70867 2.83374 0.70867 7.55664C 0.70867 12.1615 4.60631 13.8145 9.44883 14.641C 15.4725 15.7036 16.7717 16.5301 16.7717 18.4193C 16.7717 20.8988 13.937 22.1976 10.1575 22.1976C 5.31498 22.1976 3.89764 19.8362 3.77953 17.8289L 0 17.8289C 0.472442 21.8434 2.59843 25.6217 10.2756 25.6217C 17.8347 25.6217 20.5512 21.8434 20.5512 18.3012C 20.7874 13.8145 17.2441 12.2795 10.9843 11.335Z"/>
<path id="path15_fill" d="M 2.126 3.18796L 0.944891 -3.60328e-06L 3.60444e-06 -3.60328e-06L 3.60444e-06 4.01446L 0.472438 4.01446L 0.472438 0.472288L 0.590556 0.472288L 2.00788 4.01446L 2.36221 4.01446L 3.66142 0.472288L 3.77953 0.472288L 3.77953 4.01446L 4.25197 4.01446L 4.25197 -3.60328e-06L 3.3071 -3.60328e-06L 2.126 3.18796Z"/>
<path id="path16_fill" d="M 0 0.472288L 1.29922 0.472288L 1.29922 4.01446L 1.88977 4.01446L 1.88977 0.472288L 3.18898 0.472288L 3.18898 -3.60328e-06L 0 -3.60328e-06L 0 0.472288Z"/>
</defs>
</svg>