<svg width="81" height="21" viewBox="0 0 81 21" version="1.1" xmlns="http://www.w3.org/2000/svg" xmlns:xlink="http://www.w3.org/1999/xlink">
<title>Group</title>
<desc>Created using Figma</desc>
<g id="Canvas" transform="translate(-28354 55726)">
<g id="Group">
<g id="Vector">
<use xlink:href="#path0_fill" transform="translate(28354 -55725.6)"/>
</g>
<g id="Vector">
<use xlink:href="#path1_fill" transform="translate(28377.2 -55726)"/>
</g>
<g id="Vector">
<use xlink:href="#path2_fill" transform="translate(28398.1 -55725.6)"/>
</g>
<g id="Vector">
<use xlink:href="#path3_fill" transform="translate(28417.2 -55725.6)"/>
</g>
</g>
</g>
<defs>
<path id="path0_fill" d="M 2.27482 4.26563L 9.48925 20.2125L 10.9191 20.2125L 18.1336 4.06875L 18.1986 4.06875L 18.1986 20.2125L 20.4084 20.2125L 20.4084 5.00679e-07L 17.8086 5.00679e-07L 10.2042 17.0625L 2.66479 5.00679e-07L -3.0992e-08 5.00679e-07L -3.0992e-08 20.2125L 2.27482 20.2125L 2.27482 4.26563Z"/>
<path id="path1_fill" d="M 10.2042 21C 15.9887 21 20.4084 16.6031 20.4084 10.5C 20.4084 4.00312 16.1187 2.5034e-07 10.2042 2.5034e-07C 4.41965 2.5034e-07 0 4.39687 0 10.5C 0.0649949 16.9969 4.35466 21 10.2042 21ZM 10.2042 2.1C 15.7938 2.1 18.0036 6.43125 18.0036 10.5656C 18.0036 13.9125 15.8588 19.0312 10.2042 19.0312C 4.61464 19.0312 2.40481 13.9125 2.40481 10.5656C 2.46981 6.43125 4.67963 2.1 10.2042 2.1Z"/>
<path id="path2_fill" d="M 9.81423 5.00679e-07L 7.5394 5.00679e-07L -9.91743e-07 20.2125L 2.5348 20.2125L 4.54964 14.5031L 12.869 14.5031L 14.8838 20.2125L 17.4186 20.2125L 9.81423 5.00679e-07ZM 5.26458 12.4687L 8.64432 2.82187L 8.70931 2.82187L 12.089 12.4687L 5.26458 12.4687Z"/>
<path id="path3_fill" d="M 14.8188 20.2125L 17.3536 20.2125L 9.81423 5.00679e-07L 7.5394 5.00679e-07L -9.91743e-07 20.2125L 2.5348 20.2125L 4.54964 14.5031L 12.869 14.5031L 14.8188 20.2125ZM 5.26458 12.4687L 8.64432 2.82187L 8.70932 2.82187L 12.089 12.4687L 5.26458 12.4687Z"/>
</defs>
</svg>
